<svg xmlns="http://www.w3.org/2000/svg" viewBox="0 0 426.98 79.75"><defs><style>.cls-1{fill:#fff;}.cls-2{fill:none;stroke:#fff;stroke-miterlimit:10;stroke-width:0.75px;}</style></defs><g id="Layer_2" data-name="Layer 2"><g id="Layer_1-2" data-name="Layer 1"><path class="cls-1" d="M130.11,36.64c-13.34,6.69-29.82,3.58-41.65-.84l-1.06-.38L82.06,50.28H99.18l1.61-5.68h13.63l1.68,5.68H135Z"/><path class="cls-1" d="M0,38.17V50.28H22.55c11.75,0,19.83-4.36,22.62-13.45C37.67,39.27,30,41.7,20.34,41.7,12,41.7,4.68,40.23,0,38.17"/><path class="cls-1" d="M82.62,33.9c-13.91-3.82-23.85-1.41-33.68,1.71V50.28H66.88V38.42H82.62Z"/><path class="cls-1" d="M1.43,67.8H3.52a2.93,2.93,0,0,0,2.62-1.18,5.22,5.22,0,0,0,0-5.52,2.93,2.93,0,0,0-2.62-1.18H1.43ZM0,58.69H3.44a5.44,5.44,0,0,1,2.8.63,5.05,5.05,0,0,1,2.19,4.54A5.05,5.05,0,0,1,6.24,68.4a5.44,5.44,0,0,1-2.8.63H0Z"/><path class="cls-1" d="M13.2,65.53c-.83,0-1.93.35-1.93,1.39a1.27,1.27,0,0,0,1.42,1.33c1.6,0,1.9-1.38,1.87-2.72Zm1.36-.94c0-1.25-.07-2-1.51-2a1.23,1.23,0,0,0-1.35,1.15H10.27c.07-1.58,1.3-2.14,2.72-2.14s2.94.45,2.94,2.45v3.44c0,.32,0,.92.05,1.52h-.92c-.12,0-.37.07-.38-.1,0-.33-.06-.65-.07-1h0a2.31,2.31,0,0,1-2.23,1.29c-1.25,0-2.51-.65-2.51-2.06,0-2,1.79-2.6,3.49-2.6Z"/><path class="cls-1" d="M18.36,61.84h1.36V69H18.36Zm-.13-3.15h1.62v1.47H18.23Z"/><path class="cls-1" d="M23.72,69H22.35V61.84h1.37v1.39h0a2,2,0,0,1,2.11-1.49h.47V63a1.65,1.65,0,0,0-.58-.07c-1.72.06-2,1-2,2.49Z"/><polygon class="cls-1" points="32.88 61.84 30.59 67.51 28.34 61.84 26.82 61.84 29.82 69 28.73 71.78 30.12 71.78 34.34 61.84 32.88 61.84"/><polygon class="cls-1" points="39.67 69.03 39.67 58.69 45.8 58.69 45.8 59.92 41.1 59.92 41.1 63.17 45.53 63.17 45.53 64.4 41.1 64.4 41.1 69.03 39.67 69.03"/><path class="cls-1" d="M50.34,65.53c-.83,0-1.93.35-1.93,1.39a1.28,1.28,0,0,0,1.42,1.33c1.6,0,1.9-1.38,1.88-2.72Zm1.37-.94c0-1.25-.08-2-1.53-2a1.23,1.23,0,0,0-1.34,1.15H47.41c.07-1.58,1.3-2.14,2.72-2.14s2.94.45,2.94,2.45v3.44c0,.32,0,.92,0,1.52h-.91c-.14,0-.38.07-.39-.1,0-.33-.06-.65-.07-1h0a2.32,2.32,0,0,1-2.24,1.29c-1.24,0-2.5-.65-2.5-2.06,0-2,1.79-2.6,3.49-2.6Z"/><path class="cls-1" d="M56.87,69H55.51V61.84h1.36v1.39h0A2,2,0,0,1,59,61.74h.47V63A1.65,1.65,0,0,0,58.9,63c-1.72.06-2,1-2,2.49Z"/><path class="cls-1" d="M62.35,62.87h0a2.24,2.24,0,0,1,2.05-1.25A2.42,2.42,0,0,1,67,63a2.6,2.6,0,0,1,2.39-1.35A2.42,2.42,0,0,1,72,64V69H70.67V64.77c0-1-.15-2.1-1.74-2.1a1.67,1.67,0,0,0-1.59,1.12,5.56,5.56,0,0,0-.14,1.54V69H65.84V64.77c0-1.24-.28-2.1-1.59-2.1a1.85,1.85,0,0,0-1.77,1.17,5.11,5.11,0,0,0-.11,1.49V69H61V61.84h1.33Z"/><path class="cls-1" d="M79.07,64.75c0-1.21-.52-2.14-1.83-2.14a1.91,1.91,0,0,0-1.8,2.14Zm-3.63.94c-.1,1.26.41,2.56,1.8,2.56A1.51,1.51,0,0,0,79,66.79h1.43c-.21,1.64-1.47,2.46-3.19,2.46-2.31,0-3.23-1.64-3.23-3.76s1.07-3.87,3.34-3.87S80.5,63,80.5,65v.67Z"/><path class="cls-1" d="M83.93,69H82.57V61.84h1.36v1.39h0a2,2,0,0,1,2.11-1.49h.47V63A1.71,1.71,0,0,0,86,63c-1.72.06-2,1-2,2.49Z"/><path class="cls-1" d="M90.67,61.62c1.37,0,2.9.58,2.79,2.21H92c0-.92-.65-1.22-1.44-1.22s-1.32.34-1.32,1.15,1.24.86,1.75,1c1.22.41,2.62.55,2.62,2.17s-1.72,2.31-3.19,2.31-2.77-.69-2.75-2.35h1.43a1.33,1.33,0,0,0,1.46,1.35c.8,0,1.62-.31,1.62-1.24,0-1.6-4.37-.4-4.37-3.21,0-1.5,1.52-2.18,2.82-2.18"/><path class="cls-1" d="M102.62,68.25c1.61,0,2.15-1.28,2.15-2.82s-.54-2.82-2.15-2.82-2.15,1.29-2.15,2.82.53,2.82,2.15,2.82m3.58-2.82c0,2.24-1.22,3.82-3.58,3.82S99,67.67,99,65.43s1.22-3.81,3.59-3.81,3.58,1.58,3.58,3.81"/><path class="cls-1" d="M108.62,69V62.78h-1.41v-.94h1.41V60.46a2,2,0,0,1,2.25-2,6.67,6.67,0,0,1,1,.14v1.14c-.23,0-.46,0-.69,0-.77,0-1.21.2-1.18,1v1.15h1.67v.94H110V69Z"/><path class="cls-1" d="M118.23,65.1h3.85l-1.88-5ZM115.15,69l4.36-10.34H121L125.22,69h-1.56l-1.12-2.69h-4.8L116.63,69Z"/><path class="cls-1" d="M128,62.87h0a2.24,2.24,0,0,1,2-1.25A2.41,2.41,0,0,1,132.57,63,2.6,2.6,0,0,1,135,61.62,2.42,2.42,0,0,1,137.64,64V69h-1.36V64.77c0-1-.15-2.1-1.74-2.1A1.67,1.67,0,0,0,133,63.79a5.56,5.56,0,0,0-.14,1.54V69h-1.36V64.77c0-1.24-.29-2.1-1.59-2.1a1.87,1.87,0,0,0-1.78,1.17,5.42,5.42,0,0,0-.1,1.49V69h-1.35V61.84H128Z"/><path class="cls-1" d="M144.68,64.75c0-1.21-.51-2.14-1.83-2.14a1.91,1.91,0,0,0-1.8,2.14Zm-3.63.94c-.1,1.26.41,2.56,1.8,2.56a1.51,1.51,0,0,0,1.75-1.46H146c-.22,1.64-1.47,2.46-3.2,2.46-2.3,0-3.22-1.64-3.22-3.76s1.06-3.87,3.34-3.87,3.17,1.41,3.17,3.4v.67Z"/><path class="cls-1" d="M149.54,69h-1.36V61.84h1.36v1.39h0a2,2,0,0,1,2.1-1.49h.48V63a1.71,1.71,0,0,0-.59-.07c-1.72.06-2,1-2,2.49Z"/><path class="cls-1" d="M153.74,61.84h1.36V69h-1.36Zm-.13-3.15h1.61v1.47h-1.61Z"/><path class="cls-1" d="M161.67,64.14c-.07-.9-.5-1.53-1.47-1.53-1.31,0-1.81,1.13-1.81,2.82s.5,2.82,1.81,2.82c.9,0,1.46-.58,1.52-1.61h1.37a2.75,2.75,0,0,1-2.91,2.61c-2.31,0-3.22-1.64-3.22-3.76s1.06-3.87,3.33-3.87A2.57,2.57,0,0,1,163,64.14Z"/><path class="cls-1" d="M167.68,65.53c-.82,0-1.93.35-1.93,1.39a1.28,1.28,0,0,0,1.42,1.33c1.6,0,1.91-1.38,1.88-2.72Zm1.37-.94c0-1.25-.08-2-1.52-2a1.23,1.23,0,0,0-1.35,1.15h-1.43c.07-1.58,1.3-2.14,2.72-2.14s2.94.45,2.94,2.45v3.44c0,.32,0,.92.05,1.52h-.91c-.13,0-.37.07-.39-.1,0-.33,0-.65-.07-1h0a2.3,2.3,0,0,1-2.23,1.29c-1.25,0-2.51-.65-2.51-2.06,0-2,1.79-2.6,3.49-2.6Z"/><path class="cls-1" d="M104.61,31.53l1.45-4.9c.75-2.62,1.58-6.47,1.58-6.47s.82,3.85,1.58,6.47l1.4,4.9ZM119.81,8H97.25L88.09,33.5c.24.08.46.2.71.29,11.55,4.1,28.89,4.65,38.62-4.62Z"/><path class="cls-1" d="M48.94,31.15c9.43-1.92,20.17-2.92,33.68.72V25.31H66.88v-3.9H87V8H48.94Z"/><path class="cls-1" d="M16.51,22.45a9.93,9.93,0,0,1,1-3.28c1.84-3.83,4.51-7.07,4.1-10.36,0-.31-.07-.58-.09-.82H0V26.48c3.49-2.08,8.82-3.72,16.51-4"/><path class="cls-1" d="M21,32.83C14.83,32.49,10.05,31,9.8,29c-.18-1.34,1.82-2.57,5.09-3.4.2-.05.26.07.1.18-1.16.79-1.72,1.69-1.51,2.64.39,1.78,3.41,3.27,7.61,4.05.89.17.88.38-.05.33M23.78,8c4.14,3.87,8.29,9.92,8.21,15.15,5.07,1,8.48,2.7,8.59,4.58.14,2.49-5.53,4.5-13.26,5-1,.07-1.06-.13-.07-.31,5.32-.95,8.85-2.78,8.75-4.9C35.93,26.2,34.42,25,32,24a7.85,7.85,0,0,1-2.78,5.29c-5,4.32-12.93.45-12.71-6.18C7.74,24.18,5,27.73,4.84,29.39c-.27,4.09,9,7.47,21.53,6.39,6.36-.54,12.72-2.45,19.75-4A25.4,25.4,0,0,0,46.28,29c0-14.45-8.48-20.68-22.5-21"/><line class="cls-2" x1="202.36" x2="202.36" y2="79.75"/><path class="cls-1" d="M312.93,38.12h-3.62L302.92,18h3.83l4.34,16.16h.06L315.52,18h3.81Z"/><path class="cls-1" d="M321.45,38.12h-3.53L324.24,18h3.89l6.31,20.16h-3.56l-1.3-4.67h-6.85Zm2-7.28h5.39l-2.69-9.74h-.06Z"/><path class="cls-1" d="M340.15,18V35.09h7.46v3H336.79V18Z"/><path class="cls-1" d="M363.7,18V31.53a6.86,6.86,0,0,1-1.81,5,7,7,0,0,1-5.17,1.82,7.09,7.09,0,0,1-5.19-1.78,6.56,6.56,0,0,1-1.82-4.95V18h3.47V31.7a4.74,4.74,0,0,0,.27,1.7,2.64,2.64,0,0,0,.75,1.12,2.92,2.92,0,0,0,1.13.63,4.72,4.72,0,0,0,1.39.19,3.61,3.61,0,0,0,2.6-.86,3.7,3.7,0,0,0,.9-2.78V18Z"/><path class="cls-1" d="M378.48,18v3h-8v5.5h6.2v2.65h-6.2v6.09h8.34v2.94H367V18Z"/><path class="cls-1" d="M308.56,43.63V63.8h-3.47V43.63Z"/><path class="cls-1" d="M314.86,43.63l7.65,13h.06v-13h3.08V63.8h-2.44l-7.87-13.46h-.06V63.8h-3.06V43.63Z"/><path class="cls-1" d="M341.06,43.63v3H336.3V63.8h-3.48V46.64h-4.75v-3Z"/><path class="cls-1" d="M355,43.63v3h-8v5.51h6.2v2.64H347v6.09h8.34V63.8H343.49V43.63Z"/><path class="cls-1" d="M364.54,43.36a7.07,7.07,0,0,1,4.21,1.22,5.88,5.88,0,0,1,2.33,3.28l-2.54.92a4.15,4.15,0,0,0-1.48-2,3.92,3.92,0,0,0-2.21-.61,3.73,3.73,0,0,0-3.05,1.17,5.33,5.33,0,0,0-1,3.45V57a4.36,4.36,0,0,0,1,3.14,3.76,3.76,0,0,0,2.85,1,4.32,4.32,0,0,0,1.95-.4,3.83,3.83,0,0,0,1.44-1.38V55.93h-2.58V53.62h5.64V63.8H368.3V62.3a6.23,6.23,0,0,1-4.48,1.75,6.31,6.31,0,0,1-4.72-1.77,7.12,7.12,0,0,1-1.73-5.21V50.81a9.82,9.82,0,0,1,.44-3.05,6.46,6.46,0,0,1,1.34-2.36,5.82,5.82,0,0,1,2.23-1.52A8.72,8.72,0,0,1,364.54,43.36Z"/><path class="cls-1" d="M380.15,55.51h-2.42V63.8h-3.48V43.63h6.43q3.19,0,4.67,1.53a5.85,5.85,0,0,1,1.47,4.23A6.68,6.68,0,0,1,386,53a4.22,4.22,0,0,1-2.6,1.89l4.64,9h-3.81Zm-2.42-2.64h2.84a2.51,2.51,0,0,0,2.22-.86,4.32,4.32,0,0,0,.58-2.43,3.75,3.75,0,0,0-.59-2.37,2.71,2.71,0,0,0-2.19-.74h-2.86Z"/><path class="cls-1" d="M394.07,43.63V63.8h-3.48V43.63Z"/><path class="cls-1" d="M409.66,43.63v3H404.9V63.8h-3.47V46.64h-4.76v-3Z"/><path class="cls-1" d="M420.83,57.29V63.8h-3.48V57.32l-6.17-13.69h3.89l4,10.49h.05l4-10.49H427Z"/><path class="cls-1" d="M264.93,11.84c-1.7,3.26-3.7,6.93-3.7,6.93a12.19,12.19,0,0,0-1.54,4.75,64.65,64.65,0,0,0-11,1.36c-3.91,1.07-6.1,1.43-9.86,3.73a11.85,11.85,0,0,0-2.68,2.27,60.16,60.16,0,0,1,1-19.18A51.32,51.32,0,0,1,261.6,5.56c1.53,0,3,.08,4.45.2A11,11,0,0,1,264.93,11.84Z"/><path class="cls-1" d="M262,71.78h0a0,0,0,0,0,0,0Z"/><path class="cls-1" d="M288.18,27.6a10.52,10.52,0,0,0-1.35-.79,33.7,33.7,0,0,0-7.53-2.38c.05-6.32-5.1-13.08-5.1-13.08a45.12,45.12,0,0,0-4.34-5.11A57.42,57.42,0,0,1,287,11.7,58.3,58.3,0,0,1,288.18,27.6Z"/><path class="cls-1" d="M285.64,34.23a31.87,31.87,0,0,1-3.64,1.1,33.62,33.62,0,0,1-4.22.76h0s-4.43.54-5,.45c0,0-1.06,0,.33-.37a39.1,39.1,0,0,0,7.82-2.34c5.25-2.65,2.87-5.37,2.87-5.37a10.29,10.29,0,0,0-4.53-3,8.78,8.78,0,0,1-.73,2.73,12.46,12.46,0,0,1-.94,1.72,10.19,10.19,0,0,1-2.36,2.54,9.48,9.48,0,0,1-2.49,1.33,10.15,10.15,0,0,1-4,.53,10.26,10.26,0,0,1-8.12-5.5,9.74,9.74,0,0,1-1-4.42c-8.58.68-12.72,4.63-12.72,4.63-6.94,6.42,5.89,10.76,15.44,11.41,7.59.52,12.85-.06,24.44-2.72.34-1.5.6-3,.81-4.41A16.83,16.83,0,0,1,285.64,34.23Zm-20.21,2.4h-.5c-1,0-2-.11-3-.23s-1.71-.23-2.55-.39-1.41-.29-2.11-.47q-.81-.22-1.62-.48c-.37-.12-.73-.26-1.1-.39a11.4,11.4,0,0,1-1.32-.62,4.56,4.56,0,0,1-1.79-1.52,1.85,1.85,0,0,1,.29-2.18,9,9,0,0,1,4.2-2.4,11.79,11.79,0,0,1,1.55-.41c.17,0,.6-.05.28.24a5,5,0,0,0-1.73,1.84,2.27,2.27,0,0,0-.14,1.62,3.49,3.49,0,0,0,.8,1.33,7,7,0,0,0,1.09.94l.43.28.17.09c.41.23.86.41,1.29.6s.85.35,1.29.51c.65.25,1.31.47,2,.66a13.59,13.59,0,0,0,1.4.34c.34.06.68.12,1,.2a3.51,3.51,0,0,1,.49.13C267.06,36.68,265.43,36.63,265.43,36.63Z"/><path class="cls-1" d="M284.63,45c-3.54,9.42-10.26,19.15-22.57,26.73-13-8-19.8-18.46-23.17-28.38,3.54,1.85,7.67,2.62,11.54,3.32a65.47,65.47,0,0,0,11.34,1.07,97.41,97.41,0,0,0,11.94-.57,64.12,64.12,0,0,0,7.4-1.22c.59-.14,1.16-.3,1.74-.46Z"/></g></g></svg>