<svg xmlns="http://www.w3.org/2000/svg" viewBox="0 0 52.43 66.22"><defs><style>.cls-1{fill:#fff;}</style></defs><g id="Layer_2" data-name="Layer 2"><g id="Layer_1-2" data-name="Layer 1"><path class="cls-1" d="M29.09,6.28c-1.7,3.25-3.7,6.92-3.7,6.92A12.28,12.28,0,0,0,23.85,18a65.47,65.47,0,0,0-11,1.35C9,20.39,6.78,20.75,3,23A12.39,12.39,0,0,0,.34,25.31a60.12,60.12,0,0,1,1-19.17A51.19,51.19,0,0,1,25.76,0c1.53,0,3,.08,4.45.2A11.1,11.1,0,0,1,29.09,6.28Z"/><path class="cls-1" d="M26.2,66.22h0Z"/><path class="cls-1" d="M52.34,22A10.52,10.52,0,0,0,51,21.25a33.86,33.86,0,0,0-7.53-2.38c0-6.32-5.1-13.08-5.1-13.08A45.12,45.12,0,0,0,34,.68,57.28,57.28,0,0,1,51.13,6.14,58,58,0,0,1,52.34,22Z"/><path class="cls-1" d="M49.8,28.67a32.49,32.49,0,0,1-3.64,1.1,33.59,33.59,0,0,1-4.22.75h0s-4.43.55-5,.46c0,0-1.06,0,.33-.37a39.1,39.1,0,0,0,7.82-2.34c5.24-2.65,2.87-5.37,2.87-5.37a10.29,10.29,0,0,0-4.53-3,9.14,9.14,0,0,1-.73,2.73,12.46,12.46,0,0,1-.94,1.72,10.36,10.36,0,0,1-2.36,2.54,9.45,9.45,0,0,1-2.49,1.32,10.16,10.16,0,0,1-4,.54,10.26,10.26,0,0,1-8.12-5.5,9.61,9.61,0,0,1-1-4.42c-8.58.68-12.72,4.63-12.72,4.63C4.14,29.92,17,34.27,26.52,34.92c7.59.52,12.85-.07,24.43-2.73.35-1.49.61-3,.82-4.4A17.6,17.6,0,0,1,49.8,28.67Zm-20.21,2.4-.5,0c-1,0-2-.11-3-.22s-1.71-.23-2.55-.39-1.41-.29-2.11-.47q-.81-.22-1.62-.48c-.37-.12-.74-.26-1.1-.4a9.91,9.91,0,0,1-1.32-.61A4.56,4.56,0,0,1,15.63,27a1.85,1.85,0,0,1,.29-2.18,8.87,8.87,0,0,1,4.2-2.4A9.32,9.32,0,0,1,21.67,22c.17,0,.6,0,.28.24a4.92,4.92,0,0,0-1.73,1.84,2.26,2.26,0,0,0-.14,1.62,3.44,3.44,0,0,0,.8,1.33,7,7,0,0,0,1.09.94c.14.09.28.19.43.27a1,1,0,0,0,.17.1c.41.23.86.41,1.29.6s.85.35,1.29.51c.65.25,1.31.47,2,.66a13.59,13.59,0,0,0,1.4.34c.34.06.68.12,1,.2a3.51,3.51,0,0,1,.49.13C31.22,31.11,29.59,31.07,29.59,31.07Z"/><path class="cls-1" d="M48.79,39.47C45.25,48.9,38.53,58.63,26.22,66.21c-13-8-19.81-18.46-23.17-28.38,3.54,1.85,7.67,2.62,11.54,3.32a65.38,65.38,0,0,0,11.34,1.07,99.43,99.43,0,0,0,11.94-.57,63.63,63.63,0,0,0,7.39-1.23c.59-.13,1.17-.29,1.75-.46Z"/></g></g></svg>